<svg xmlns="http://www.w3.org/2000/svg" version="1.1" xmlns:xlink="http://www.w3.org/1999/xlink" xmlns:svgjs="http://svgjs.dev/svgjs" width="1440" height="560" preserveAspectRatio="none" viewBox="0 0 1440 560"><g mask="url(&quot;#SvgjsMask1004&quot;)" fill="none"><rect width="1440" height="560" x="0" y="0" fill="rgba(69, 95, 163, 1)"></rect><path d="M1560 560L0 560 L0 311.11Q34.85 225.96, 120 260.8Q157.53 178.33, 240 215.86Q328.86 184.72, 360 273.57Q380.28 173.85, 480 194.13Q557.13 151.26, 600 228.39Q685.16 193.56, 720 278.72Q736.81 223.53, 792 240.33Q818 194.34, 864 220.34Q917.83 154.17, 984 208Q1051.11 203.11, 1056 270.22Q1113.76 255.98, 1128 313.74Q1133.75 247.49, 1200 253.23Q1268.98 202.21, 1320 271.19Q1355.89 187.08, 1440 222.98Q1530.12 193.1, 1560 283.22z" fill="#182f5d"></path><path d="M1464 560L0 560 L0 336Q12.69 276.69, 72 289.38Q116.06 261.44, 144 305.5Q222.06 311.56, 216 389.63Q257.17 358.8, 288 399.97Q319.34 311.31, 408 342.65Q487.08 301.73, 528 380.81Q552.04 332.85, 600 356.89Q629 265.89, 720 294.9Q785.57 240.46, 840 306.03Q943.27 289.3, 960 392.57Q1000.34 312.91, 1080 353.25Q1149.87 303.12, 1200 372.99Q1220.42 321.41, 1272 341.84Q1279.32 277.16, 1344 284.48Q1410.95 231.44, 1464 298.39z" fill="#25467d"></path><path d="M1464 560L0 560 L0 459.16Q78.44 417.6, 120 496.04Q126.95 382.99, 240 389.94Q270.45 348.39, 312 378.85Q363.94 358.79, 384 410.72Q460.55 367.27, 504 443.83Q579.86 399.69, 624 475.55Q638.75 418.31, 696 433.06Q712.88 377.94, 768 394.82Q833.12 339.94, 888 405.05Q954.87 399.92, 960 466.79Q978.48 413.27, 1032 431.75Q1080.03 407.78, 1104 455.82Q1176.85 408.67, 1224 481.52Q1290.69 428.21, 1344 494.9Q1376.62 407.51, 1464 440.13z" fill="#356cb1"></path><path d="M1512 560L0 560 L0 474.66Q39.43 442.09, 72 481.52Q158.6 496.12, 144 582.71Q160.66 479.38, 264 496.04Q293.59 453.63, 336 483.23Q443.91 471.14, 456 579.05Q473.02 524.07, 528 541.08Q556.51 449.6, 648 478.11Q728.13 438.24, 768 518.36Q864.41 494.77, 888 591.18Q902.26 533.44, 960 547.71Q980.58 448.29, 1080 468.86Q1154.87 423.73, 1200 498.59Q1269.35 495.93, 1272 565.28Q1347.79 521.07, 1392 596.86Q1446.53 531.38, 1512 585.91z" fill="white"></path></g><defs><mask id="SvgjsMask1004"><rect width="1440" height="560" fill="#ffffff"></rect></mask></defs></svg>